<mxfile host="app.diagrams.net" agent="Mozilla/5.0 (Windows NT 10.0; Win64; x64) AppleWebKit/537.36 (KHTML, like Gecko) Chrome/129.0.0.0 Safari/537.36" version="24.8.0">
  <diagram name="ページ1" id="tIoSTaOd9nqfBoHdt_YB">
    <mxGraphModel dx="1195" dy="653" grid="1" gridSize="10" guides="1" tooltips="1" connect="1" arrows="1" fold="1" page="1" pageScale="1" pageWidth="827" pageHeight="1169" math="0" shadow="0">
      <root>
        <mxCell id="0" />
        <mxCell id="1" parent="0" />
        <mxCell id="qXLM3dsD0ZpeDFaWlvin-17" value="" style="rounded=0;whiteSpace=wrap;html=1;fillColor=none;strokeColor=none;" parent="1" vertex="1">
          <mxGeometry x="20" y="240" width="710" height="180" as="geometry" />
        </mxCell>
        <mxCell id="ywBuTrqe7SfLJ08rDnAR-33" value="" style="verticalLabelPosition=bottom;shadow=0;dashed=0;align=center;html=1;verticalAlign=top;shape=mxgraph.electrical.logic_gates.inverter_2" parent="1" vertex="1">
          <mxGeometry x="76" y="250" width="100" height="60" as="geometry" />
        </mxCell>
        <mxCell id="ywBuTrqe7SfLJ08rDnAR-34" value="a" style="text;html=1;align=center;verticalAlign=middle;whiteSpace=wrap;rounded=0;" parent="1" vertex="1">
          <mxGeometry x="40" y="265" width="10" height="30" as="geometry" />
        </mxCell>
        <mxCell id="ywBuTrqe7SfLJ08rDnAR-38" value="" style="endArrow=none;html=1;rounded=0;entryX=0;entryY=0.5;entryDx=0;entryDy=0;entryPerimeter=0;" parent="1" target="ywBuTrqe7SfLJ08rDnAR-33" edge="1">
          <mxGeometry width="50" height="50" relative="1" as="geometry">
            <mxPoint x="60" y="280" as="sourcePoint" />
            <mxPoint x="66" y="280" as="targetPoint" />
          </mxGeometry>
        </mxCell>
        <mxCell id="ywBuTrqe7SfLJ08rDnAR-41" value="out1" style="text;html=1;align=center;verticalAlign=middle;whiteSpace=wrap;rounded=0;" parent="1" vertex="1">
          <mxGeometry x="161" y="250" width="30" height="30" as="geometry" />
        </mxCell>
        <mxCell id="ywBuTrqe7SfLJ08rDnAR-42" value="b" style="text;html=1;align=center;verticalAlign=middle;whiteSpace=wrap;rounded=0;" parent="1" vertex="1">
          <mxGeometry x="40" y="370" width="10" height="30" as="geometry" />
        </mxCell>
        <mxCell id="ywBuTrqe7SfLJ08rDnAR-43" value="" style="verticalLabelPosition=bottom;shadow=0;dashed=0;align=center;html=1;verticalAlign=top;shape=mxgraph.electrical.logic_gates.logic_gate;operation=and;" parent="1" vertex="1">
          <mxGeometry x="210" y="340" width="100" height="60" as="geometry" />
        </mxCell>
        <mxCell id="ywBuTrqe7SfLJ08rDnAR-44" value="" style="endArrow=none;html=1;rounded=0;entryX=0;entryY=0.75;entryDx=0;entryDy=0;entryPerimeter=0;" parent="1" target="ywBuTrqe7SfLJ08rDnAR-43" edge="1">
          <mxGeometry width="50" height="50" relative="1" as="geometry">
            <mxPoint x="60" y="385" as="sourcePoint" />
            <mxPoint x="56" y="380" as="targetPoint" />
            <Array as="points">
              <mxPoint x="206" y="385" />
            </Array>
          </mxGeometry>
        </mxCell>
        <mxCell id="ywBuTrqe7SfLJ08rDnAR-45" value="" style="endArrow=none;html=1;rounded=0;entryX=1;entryY=0.5;entryDx=0;entryDy=0;entryPerimeter=0;exitX=0;exitY=0.25;exitDx=0;exitDy=0;exitPerimeter=0;" parent="1" source="ywBuTrqe7SfLJ08rDnAR-43" target="ywBuTrqe7SfLJ08rDnAR-33" edge="1">
          <mxGeometry width="50" height="50" relative="1" as="geometry">
            <mxPoint x="256" y="310" as="sourcePoint" />
            <mxPoint x="306" y="260" as="targetPoint" />
            <Array as="points">
              <mxPoint x="200" y="355" />
              <mxPoint x="200" y="280" />
            </Array>
          </mxGeometry>
        </mxCell>
        <mxCell id="ywBuTrqe7SfLJ08rDnAR-46" value="" style="verticalLabelPosition=bottom;shadow=0;dashed=0;align=center;html=1;verticalAlign=top;shape=mxgraph.electrical.logic_gates.inverter_2" parent="1" vertex="1">
          <mxGeometry x="330" y="340" width="100" height="60" as="geometry" />
        </mxCell>
        <mxCell id="ywBuTrqe7SfLJ08rDnAR-48" value="" style="verticalLabelPosition=bottom;shadow=0;dashed=0;align=center;html=1;verticalAlign=top;shape=mxgraph.electrical.logic_gates.logic_gate;operation=and;" parent="1" vertex="1">
          <mxGeometry x="470" y="295" width="100" height="60" as="geometry" />
        </mxCell>
        <mxCell id="ywBuTrqe7SfLJ08rDnAR-49" value="" style="endArrow=none;html=1;rounded=0;entryX=0;entryY=0.25;entryDx=0;entryDy=0;entryPerimeter=0;" parent="1" target="ywBuTrqe7SfLJ08rDnAR-48" edge="1">
          <mxGeometry width="50" height="50" relative="1" as="geometry">
            <mxPoint x="176" y="280" as="sourcePoint" />
            <mxPoint x="496" y="280" as="targetPoint" />
            <Array as="points">
              <mxPoint x="460" y="280" />
              <mxPoint x="460" y="310" />
              <mxPoint x="470" y="310" />
            </Array>
          </mxGeometry>
        </mxCell>
        <mxCell id="ywBuTrqe7SfLJ08rDnAR-50" value="" style="endArrow=none;html=1;rounded=0;entryX=0;entryY=0.75;entryDx=0;entryDy=0;entryPerimeter=0;exitX=1;exitY=0.5;exitDx=0;exitDy=0;exitPerimeter=0;" parent="1" source="ywBuTrqe7SfLJ08rDnAR-46" target="ywBuTrqe7SfLJ08rDnAR-48" edge="1">
          <mxGeometry width="50" height="50" relative="1" as="geometry">
            <mxPoint x="466" y="410" as="sourcePoint" />
            <mxPoint x="516" y="360" as="targetPoint" />
            <Array as="points">
              <mxPoint x="460" y="370" />
              <mxPoint x="460" y="340" />
            </Array>
          </mxGeometry>
        </mxCell>
        <mxCell id="ywBuTrqe7SfLJ08rDnAR-51" value="out2" style="text;html=1;align=center;verticalAlign=middle;whiteSpace=wrap;rounded=0;" parent="1" vertex="1">
          <mxGeometry x="290" y="380" width="44" height="30" as="geometry" />
        </mxCell>
        <mxCell id="ywBuTrqe7SfLJ08rDnAR-52" value="out3" style="text;html=1;align=center;verticalAlign=middle;whiteSpace=wrap;rounded=0;" parent="1" vertex="1">
          <mxGeometry x="400" y="380" width="54" height="30" as="geometry" />
        </mxCell>
        <mxCell id="ywBuTrqe7SfLJ08rDnAR-54" value="" style="verticalLabelPosition=bottom;shadow=0;dashed=0;align=center;html=1;verticalAlign=top;shape=mxgraph.electrical.logic_gates.inverter_2" parent="1" vertex="1">
          <mxGeometry x="590" y="295" width="100" height="60" as="geometry" />
        </mxCell>
        <mxCell id="ywBuTrqe7SfLJ08rDnAR-55" value="" style="endArrow=none;html=1;rounded=0;entryX=0;entryY=0.5;entryDx=0;entryDy=0;entryPerimeter=0;exitX=1;exitY=0.5;exitDx=0;exitDy=0;exitPerimeter=0;" parent="1" source="ywBuTrqe7SfLJ08rDnAR-48" target="ywBuTrqe7SfLJ08rDnAR-54" edge="1">
          <mxGeometry width="50" height="50" relative="1" as="geometry">
            <mxPoint x="490" y="430" as="sourcePoint" />
            <mxPoint x="540" y="380" as="targetPoint" />
          </mxGeometry>
        </mxCell>
        <mxCell id="ywBuTrqe7SfLJ08rDnAR-56" value="out4" style="text;html=1;align=center;verticalAlign=middle;whiteSpace=wrap;rounded=0;" parent="1" vertex="1">
          <mxGeometry x="550" y="295" width="50" height="30" as="geometry" />
        </mxCell>
        <mxCell id="ywBuTrqe7SfLJ08rDnAR-57" value="out" style="text;html=1;align=center;verticalAlign=middle;whiteSpace=wrap;rounded=0;" parent="1" vertex="1">
          <mxGeometry x="680" y="295" width="50" height="30" as="geometry" />
        </mxCell>
        <mxCell id="ywBuTrqe7SfLJ08rDnAR-58" value="" style="endArrow=none;html=1;rounded=0;exitX=1;exitY=0.5;exitDx=0;exitDy=0;exitPerimeter=0;" parent="1" source="ywBuTrqe7SfLJ08rDnAR-54" edge="1">
          <mxGeometry width="50" height="50" relative="1" as="geometry">
            <mxPoint x="730" y="330" as="sourcePoint" />
            <mxPoint x="710" y="325" as="targetPoint" />
          </mxGeometry>
        </mxCell>
        <mxCell id="ywBuTrqe7SfLJ08rDnAR-60" value="" style="endArrow=none;html=1;rounded=0;exitX=1;exitY=0.5;exitDx=0;exitDy=0;exitPerimeter=0;" parent="1" source="ywBuTrqe7SfLJ08rDnAR-43" edge="1">
          <mxGeometry width="50" height="50" relative="1" as="geometry">
            <mxPoint x="300" y="360" as="sourcePoint" />
            <mxPoint x="330" y="370" as="targetPoint" />
          </mxGeometry>
        </mxCell>
      </root>
    </mxGraphModel>
  </diagram>
</mxfile>
